<svg width="9" height="12" viewBox="0 0 9 12" fill="none" xmlns="http://www.w3.org/2000/svg">
<path d="M4.5 4V2M8.5 8V8.49994C8.5 9.88065 7.38071 11 6 11M0.5 2V9.17157C0.5 9.70201 0.710714 10.2107 1.08579 10.5858C1.86684 11.3668 3.13316 11.3668 3.91421 10.5858C4.28929 10.2107 4.5 9.70201 4.5 9.17157V5M0 0.5H9M8.5 4.41421V5.08579C8.5 5.351 8.39464 5.60536 8.20711 5.79289C7.57714 6.42286 6.5 5.97669 6.5 5.08579V4.41421C6.5 4.149 6.60536 3.89464 6.79289 3.70711C7.42286 3.07714 8.5 3.52331 8.5 4.41421Z" stroke="#E99BFF"/>
</svg>
